<svg xmlns="http://www.w3.org/2000/svg" viewBox="0 0 310 310" fill="#FFF">
  <path d="M197.54 177.67h33.96l-26.1 33.28c-3.53 4.5-3.14 10.92.9 14.96l16.1 16.1c4.82 4.82 12.79 4.31 16.95-1.1l24.86-32.32A114.729 114.729 0 0 0 288 138.63V87.21c0-12.45-10.09-22.54-22.54-22.54h-67.91c-12.45 0-22.54 10.09-22.54 22.54v67.91c-.01 12.46 10.08 22.55 22.53 22.55zm-153 0H78.5l-26.1 33.28c-3.53 4.5-3.14 10.92.9 14.96l16.1 16.1c4.82 4.82 12.79 4.31 16.95-1.1l24.86-32.32A114.729 114.729 0 0 0 135 138.63V87.21c0-12.45-10.09-22.54-22.54-22.54H44.54C32.09 64.67 22 74.76 22 87.21v67.91c0 12.46 10.09 22.55 22.54 22.55z"></path>
</svg>
